<svg width="121" height="28" viewBox="0 0 121 28" fill="none" xmlns="http://www.w3.org/2000/svg">
<path d="M7.00667 23.31C6.11262 23.3147 5.22642 23.1442 4.39869 22.8085C3.57097 22.4727 2.81795 21.9783 2.18267 21.3533C1.54738 20.7284 1.04228 19.9852 0.696226 19.1663C0.350169 18.3474 0.169938 17.4688 0.165833 16.5806V11.408C0.17723 9.61636 0.904118 7.90246 2.18681 6.64285C3.46949 5.38325 5.20307 4.68096 7.00667 4.69028H10.8933C11.14 4.67892 11.3863 4.71737 11.6176 4.80329C11.8488 4.88922 12.0601 5.02084 12.2387 5.1902C12.4172 5.35955 12.5594 5.56313 12.6565 5.78861C12.7536 6.01409 12.8037 6.25679 12.8037 6.50205C12.8037 6.7473 12.7536 6.99001 12.6565 7.21549C12.5594 7.44097 12.4172 7.64454 12.2387 7.8139C12.0601 7.98325 11.8488 8.11488 11.6176 8.2008C11.3863 8.28673 11.14 8.32517 10.8933 8.31382H7.00667C6.59308 8.31073 6.18297 8.389 5.79997 8.54409C5.41697 8.69919 5.06865 8.92805 4.7751 9.21749C4.48155 9.50693 4.24857 9.85122 4.08958 10.2305C3.93059 10.6098 3.84875 11.0166 3.84876 11.4275V16.5806C3.84875 16.9915 3.93059 17.3983 4.08958 17.7776C4.24857 18.1569 4.48155 18.5012 4.7751 18.7906C5.06865 19.0801 5.41697 19.3089 5.79997 19.464C6.18297 19.6191 6.59308 19.6974 7.00667 19.6943H10.8933C11.14 19.6829 11.3863 19.7214 11.6176 19.8073C11.8488 19.8932 12.0601 20.0249 12.2387 20.1942C12.4172 20.3636 12.5594 20.5671 12.6565 20.7926C12.7536 21.0181 12.8037 21.2608 12.8037 21.5061C12.8037 21.7513 12.7536 21.994 12.6565 22.2195C12.5594 22.445 12.4172 22.6486 12.2387 22.8179C12.0601 22.9873 11.8488 23.1189 11.6176 23.2048C11.3863 23.2907 11.14 23.3292 10.8933 23.3178L7.00667 23.31Z" fill="#434444"/>
<path d="M65.291 4.69027C63.4856 4.68199 61.7509 5.38622 60.4681 6.64812C59.1853 7.91003 58.4595 9.62633 58.4501 11.4197V16.5806C58.4501 18.3829 59.1709 20.1114 60.4538 21.3858C61.7367 22.6602 63.4767 23.3762 65.291 23.3762C67.1053 23.3762 68.8453 22.6602 70.1282 21.3858C71.4111 20.1114 72.1318 18.3829 72.1318 16.5806V11.408C72.1204 9.61636 71.3935 7.90246 70.1108 6.64285C68.8281 5.38324 67.0946 4.68095 65.291 4.69027ZM68.4489 16.5923C68.4201 17.4047 68.075 18.1742 67.4862 18.7387C66.8975 19.3033 66.1112 19.6188 65.2929 19.6188C64.4747 19.6188 63.6883 19.3033 63.0996 18.7387C62.5109 18.1742 62.1658 17.4047 62.137 16.5923V11.408C62.1658 10.5957 62.5109 9.82614 63.0996 9.26157C63.6883 8.697 64.4747 8.38148 65.2929 8.38148C66.1112 8.38148 66.8975 8.697 67.4862 9.26157C68.075 9.82614 68.4201 10.5957 68.4489 11.408V16.5923Z" fill="#434444"/>
<path d="M14.6076 21.5002C14.6076 21.9854 14.8016 22.4507 15.147 22.7937C15.4923 23.1368 15.9607 23.3295 16.4491 23.3295C16.9375 23.3295 17.4058 23.1368 17.7512 22.7937C18.0965 22.4507 18.2905 21.9854 18.2905 21.5002V11.408C18.2905 10.9972 18.3724 10.5904 18.5314 10.2111C18.6903 9.83176 18.9233 9.48747 19.2169 9.19803C19.5104 8.90859 19.8587 8.67973 20.2417 8.52463C20.6247 8.36954 21.0349 8.29127 21.4484 8.29436H23.7993C24.0459 8.30571 24.2923 8.26727 24.5235 8.18134C24.7547 8.09542 24.966 7.96379 25.1446 7.79444C25.3232 7.62508 25.4653 7.42151 25.5624 7.19602C25.6595 6.97054 25.7096 6.72784 25.7096 6.48259C25.7096 6.23733 25.6595 5.99463 25.5624 5.76915C25.4653 5.54366 25.3232 5.34009 25.1446 5.17073C24.966 5.00138 24.7547 4.86976 24.5235 4.78383C24.2923 4.69791 24.0459 4.65946 23.7993 4.67082H21.4484C20.5539 4.66672 19.6673 4.83776 18.8393 5.17417C18.0113 5.51058 17.2581 6.00576 16.6228 6.63142C15.9875 7.25708 15.4826 8.00096 15.1368 8.82055C14.791 9.64014 14.6112 10.5194 14.6076 11.408V21.5002Z" fill="#434444"/>
<path d="M40.106 11.408C40.106 9.60571 39.3853 7.87723 38.1024 6.60281C36.8195 5.32839 35.0795 4.61243 33.2652 4.61243C31.4509 4.61243 29.7109 5.32839 28.428 6.60281C27.145 7.87723 26.4243 9.60571 26.4243 11.408V16.5806C26.4284 17.4688 26.6087 18.3474 26.9547 19.1663C27.3008 19.9852 27.8059 20.7284 28.4412 21.3533C29.0764 21.9783 29.8295 22.4727 30.6572 22.8085C31.4849 23.1442 32.3711 23.3146 33.2652 23.31C34.4623 23.3086 35.6385 22.9974 36.6777 22.4071C36.8818 22.7514 37.1937 23.0199 37.5658 23.1715C37.938 23.3231 38.3498 23.3496 38.7385 23.2468C39.1272 23.1439 39.4713 22.9175 39.7182 22.6022C39.9651 22.2868 40.1014 21.8997 40.106 21.5002V11.408ZM36.4192 16.5806C36.3903 17.393 36.0452 18.1625 35.4565 18.7271C34.8678 19.2916 34.0815 19.6072 33.2632 19.6072C32.4449 19.6072 31.6586 19.2916 31.0699 18.7271C30.4812 18.1625 30.1361 17.393 30.1072 16.5806V11.408C30.1361 10.5957 30.4812 9.82613 31.0699 9.26156C31.6586 8.69699 32.4449 8.38147 33.2632 8.38147C34.0815 8.38147 34.8678 8.69699 35.4565 9.26156C36.0452 9.82613 36.3903 10.5957 36.4192 11.408V16.5806Z" fill="#434444"/>
<path d="M54.2775 4.69026C54.0368 4.68872 53.7983 4.73434 53.5754 4.82451C53.3526 4.91468 53.1499 5.04762 52.9788 5.21573C52.8078 5.38384 52.6718 5.58381 52.5786 5.8042C52.4855 6.02459 52.437 6.26106 52.436 6.50008V16.5806C52.436 17.4126 52.1033 18.2105 51.5111 18.7988C50.9188 19.3871 50.1156 19.7176 49.2781 19.7176C48.4405 19.7176 47.6373 19.3871 47.0451 18.7988C46.4529 18.2105 46.1202 17.4126 46.1202 16.5806V6.48841C46.1202 6.00325 45.9261 5.53796 45.5808 5.19491C45.2355 4.85185 44.7671 4.65912 44.2787 4.65912C43.7903 4.65912 43.3219 4.85185 42.9766 5.19491C42.6312 5.53796 42.4372 6.00325 42.4372 6.48841V16.5806C42.4431 18.0546 42.9352 19.4861 43.8382 20.6558C44.7411 21.8255 46.0051 22.669 47.4366 23.057V26.1707C47.4366 26.6559 47.6306 27.1212 47.976 27.4642C48.3213 27.8073 48.7897 28 49.2781 28C49.7665 28 50.2348 27.8073 50.5802 27.4642C50.9255 27.1212 51.1195 26.6559 51.1195 26.1707V23.057C52.5514 22.6696 53.8157 21.8262 54.7188 20.6564C55.6218 19.4866 56.1137 18.0548 56.1189 16.5806V6.48841C56.1127 6.00802 55.9157 5.54952 55.5708 5.21274C55.2259 4.87596 54.7611 4.68817 54.2775 4.69026Z" fill="#434444"/>
<path d="M78.1342 8.30214H81.2882C81.7018 8.29905 82.1119 8.37732 82.4949 8.53241C82.8779 8.68751 83.2262 8.91637 83.5198 9.20581C83.8133 9.49525 84.0463 9.83954 84.2053 10.2188C84.3643 10.5981 84.4461 11.0049 84.4461 11.4158V21.5002C84.4461 21.9854 84.6401 22.4507 84.9855 22.7937C85.3308 23.1368 85.7992 23.3295 86.2876 23.3295C86.776 23.3295 87.2443 23.1368 87.5897 22.7937C87.935 22.4507 88.129 21.9854 88.129 21.5002V11.408C88.1166 9.61939 87.3915 7.90844 86.1125 6.6495C84.8334 5.39056 83.1044 4.68611 81.3039 4.69027H76.3084C76.0678 4.68874 75.8292 4.73436 75.6064 4.82453C75.3836 4.91469 75.1808 5.04764 75.0098 5.21575C74.8387 5.38386 74.7027 5.58383 74.6096 5.80421C74.5164 6.0246 74.468 6.26108 74.4669 6.5001V21.5002C74.4669 21.9854 74.6609 22.4507 75.0063 22.7937C75.3516 23.1368 75.82 23.3295 76.3084 23.3295C76.7968 23.3295 77.2652 23.1368 77.6105 22.7937C77.9559 22.4507 78.1499 21.9854 78.1499 21.5002L78.1342 8.30214Z" fill="#434444"/>
<path d="M120.04 13.9765L112.937 20.9628V6.99019H112.941L120.04 13.9765Z" fill="#903392"/>
<path d="M105.833 20.9628L112.937 13.9765H105.833V20.9628Z" fill="#295CA9"/>
<path d="M112.937 6.99019H105.833V13.9765H112.937L112.937 6.99019Z" fill="#EE5283"/>
<path d="M112.937 6.99019H105.833V0L112.937 6.98631L112.937 6.99019Z" fill="#F69036"/>
<path d="M105.833 13.9765L91.6266 0H105.833V13.9765Z" fill="#FFC332"/>
<path d="M91.6266 27.9491L105.833 13.9765L105.833 27.9491H91.6266Z" fill="#00AF84"/>
<path d="M112.937 13.9765L112.937 20.9628L105.833 27.9491L105.833 20.9628L112.937 13.9765Z" fill="#0081C5"/>
</svg>
